<svg width="23" height="25" viewBox="0 0 23 25" fill="none" xmlns="http://www.w3.org/2000/svg">
   <path fill-rule="evenodd" clip-rule="evenodd"
      d="M9.2 1.5625H18.4V12.5C18.4 12.6382 18.3641 12.774 18.2958 12.8934C18.2275 13.0129 18.1293 13.1117 18.0113 13.1799C17.8933 13.248 17.7597 13.283 17.624 13.2814C17.4884 13.2797 17.3556 13.2414 17.2393 13.1703L13.8 11.0672L10.3607 13.1719C10.2443 13.243 10.1114 13.2813 9.97558 13.2829C9.83981 13.2845 9.70606 13.2494 9.588 13.181C9.46994 13.1127 9.37181 13.0136 9.30363 12.894C9.23546 12.7743 9.1997 12.6384 9.2 12.5V1.5625Z"
      fill="#ffffff" />
   <path
      d="M4.6 0H19.9333C20.7467 0 21.5267 0.32924 22.1018 0.915291C22.6769 1.50134 23 2.2962 23 3.125V21.875C23 22.7038 22.6769 23.4987 22.1018 24.0847C21.5267 24.6708 20.7467 25 19.9333 25H4.6C3.78667 25 3.00665 24.6708 2.43154 24.0847C1.85643 23.4987 1.53333 22.7038 1.53333 21.875V20.3125H3.06667V21.875C3.06667 22.2894 3.22821 22.6868 3.51577 22.9799C3.80333 23.2729 4.19333 23.4375 4.6 23.4375H19.9333C20.34 23.4375 20.73 23.2729 21.0176 22.9799C21.3051 22.6868 21.4667 22.2894 21.4667 21.875V3.125C21.4667 2.7106 21.3051 2.31317 21.0176 2.02015C20.73 1.72712 20.34 1.5625 19.9333 1.5625H4.6C4.19333 1.5625 3.80333 1.72712 3.51577 2.02015C3.22821 2.31317 3.06667 2.7106 3.06667 3.125V4.6875H1.53333V3.125C1.53333 2.2962 1.85643 1.50134 2.43154 0.915291C3.00665 0.32924 3.78667 0 4.6 0Z"
      fill="#ffffff" />
   <path
      d="M1.53333 7.8125V7.03125C1.53333 6.82405 1.61411 6.62534 1.75788 6.47882C1.90166 6.33231 2.09667 6.25 2.3 6.25C2.50333 6.25 2.69834 6.33231 2.84212 6.47882C2.98589 6.62534 3.06667 6.82405 3.06667 7.03125V7.8125H3.83333C4.03667 7.8125 4.23167 7.89481 4.37545 8.04132C4.51923 8.18784 4.6 8.38655 4.6 8.59375C4.6 8.80095 4.51923 8.99966 4.37545 9.14618C4.23167 9.29269 4.03667 9.375 3.83333 9.375H0.766667C0.563334 9.375 0.368329 9.29269 0.224551 9.14618C0.0807736 8.99966 0 8.80095 0 8.59375C0 8.38655 0.0807736 8.18784 0.224551 8.04132C0.368329 7.89481 0.563334 7.8125 0.766667 7.8125H1.53333ZM1.53333 12.5V11.7188C1.53333 11.5115 1.61411 11.3128 1.75788 11.1663C1.90166 11.0198 2.09667 10.9375 2.3 10.9375C2.50333 10.9375 2.69834 11.0198 2.84212 11.1663C2.98589 11.3128 3.06667 11.5115 3.06667 11.7188V12.5H3.83333C4.03667 12.5 4.23167 12.5823 4.37545 12.7288C4.51923 12.8753 4.6 13.074 4.6 13.2813C4.6 13.4885 4.51923 13.6872 4.37545 13.8337C4.23167 13.9802 4.03667 14.0625 3.83333 14.0625H0.766667C0.563334 14.0625 0.368329 13.9802 0.224551 13.8337C0.0807736 13.6872 0 13.4885 0 13.2813C0 13.074 0.0807736 12.8753 0.224551 12.7288C0.368329 12.5823 0.563334 12.5 0.766667 12.5H1.53333ZM1.53333 17.1875V16.4063C1.53333 16.199 1.61411 16.0003 1.75788 15.8538C1.90166 15.7073 2.09667 15.625 2.3 15.625C2.50333 15.625 2.69834 15.7073 2.84212 15.8538C2.98589 16.0003 3.06667 16.199 3.06667 16.4063V17.1875H3.83333C4.03667 17.1875 4.23167 17.2698 4.37545 17.4163C4.51923 17.5628 4.6 17.7616 4.6 17.9688C4.6 18.176 4.51923 18.3747 4.37545 18.5212C4.23167 18.6677 4.03667 18.75 3.83333 18.75H0.766667C0.563334 18.75 0.368329 18.6677 0.224551 18.5212C0.0807736 18.3747 0 18.176 0 17.9688C0 17.7616 0.0807736 17.5628 0.224551 17.4163C0.368329 17.2698 0.563334 17.1875 0.766667 17.1875H1.53333Z"
      fill="#ffffff" />
</svg>