<svg xmlns="http://www.w3.org/2000/svg">

   <symbol id="close" viewBox="0 0 49 49">
      <path
         d="M49 24.5C49 30.9978 46.4188 37.2295 41.8241 41.8241C37.2295 46.4188 30.9978 49 24.5 49C18.0022 49 11.7705 46.4188 7.17588 41.8241C2.58124 37.2295 0 30.9978 0 24.5C0 18.0022 2.58124 11.7705 7.17588 7.17588C11.7705 2.58124 18.0022 0 24.5 0C30.9978 0 37.2295 2.58124 41.8241 7.17588C46.4188 11.7705 49 18.0022 49 24.5ZM16.3966 14.2284C16.1091 13.9408 15.7191 13.7793 15.3125 13.7793C14.9059 13.7793 14.5159 13.9408 14.2284 14.2284C13.9408 14.5159 13.7793 14.9059 13.7793 15.3125C13.7793 15.7191 13.9408 16.1091 14.2284 16.3966L22.3348 24.5L14.2284 32.6034C14.086 32.7457 13.9731 32.9148 13.896 33.1008C13.819 33.2868 13.7793 33.4862 13.7793 33.6875C13.7793 33.8888 13.819 34.0882 13.896 34.2742C13.9731 34.4602 14.086 34.6293 14.2284 34.7716C14.5159 35.0592 14.9059 35.2207 15.3125 35.2207C15.5138 35.2207 15.7132 35.181 15.8992 35.104C16.0852 35.0269 16.2543 34.914 16.3966 34.7716L24.5 26.6652L32.6034 34.7716C32.7457 34.914 32.9148 35.0269 33.1008 35.104C33.2868 35.181 33.4862 35.2207 33.6875 35.2207C33.8888 35.2207 34.0882 35.181 34.2742 35.104C34.4602 35.0269 34.6293 34.914 34.7716 34.7716C34.914 34.6293 35.0269 34.4602 35.104 34.2742C35.181 34.0882 35.2207 33.8888 35.2207 33.6875C35.2207 33.4862 35.181 33.2868 35.104 33.1008C35.0269 32.9148 34.914 32.7457 34.7716 32.6034L26.6652 24.5L34.7716 16.3966C34.914 16.2543 35.0269 16.0852 35.104 15.8992C35.181 15.7132 35.2207 15.5138 35.2207 15.3125C35.2207 15.1112 35.181 14.9118 35.104 14.7258C35.0269 14.5398 34.914 14.3707 34.7716 14.2284C34.6293 14.086 34.4602 13.9731 34.2742 13.896C34.0882 13.819 33.8888 13.7793 33.6875 13.7793C33.4862 13.7793 33.2868 13.819 33.1008 13.896C32.9148 13.9731 32.7457 14.086 32.6034 14.2284L24.5 22.3348L16.3966 14.2284Z" />
   </symbol>

   <symbol id="addtask" viewBox="0 0 49 49">
      <path
         d="M49 24.5C49 30.9978 46.4188 37.2295 41.8241 41.8241C37.2295 46.4188 30.9978 49 24.5 49C18.0022 49 11.7705 46.4188 7.17588 41.8241C2.58124 37.2295 0 30.9978 0 24.5C0 18.0022 2.58124 11.7705 7.17588 7.17588C11.7705 2.58124 18.0022 0 24.5 0C30.9978 0 37.2295 2.58124 41.8241 7.17588C46.4188 11.7705 49 18.0022 49 24.5ZM26.0312 13.7812C26.0312 13.3751 25.8699 12.9857 25.5828 12.6985C25.2956 12.4113 24.9061 12.25 24.5 12.25C24.0939 12.25 23.7044 12.4113 23.4172 12.6985C23.1301 12.9857 22.9688 13.3751 22.9688 13.7812V22.9688H13.7812C13.3751 22.9688 12.9857 23.1301 12.6985 23.4172C12.4113 23.7044 12.25 24.0939 12.25 24.5C12.25 24.9061 12.4113 25.2956 12.6985 25.5828C12.9857 25.8699 13.3751 26.0312 13.7812 26.0312H22.9688V35.2188C22.9688 35.6249 23.1301 36.0143 23.4172 36.3015C23.7044 36.5887 24.0939 36.75 24.5 36.75C24.9061 36.75 25.2956 36.5887 25.5828 36.3015C25.8699 36.0143 26.0312 35.6249 26.0312 35.2188V26.0312H35.2188C35.6249 26.0312 36.0143 25.8699 36.3015 25.5828C36.5887 25.2956 36.75 24.9061 36.75 24.5C36.75 24.0939 36.5887 23.7044 36.3015 23.4172C36.0143 23.1301 35.6249 22.9688 35.2188 22.9688H26.0312V13.7812Z" />
   </symbol>



   <symbol id="instructions" viewBox="0 0 4 17">
      <path
         d="M0.5075 1.65C0.486565 1.44143 0.509576 1.23078 0.57505 1.03166C0.640525 0.832526 0.747008 0.64933 0.887634 0.493882C1.02826 0.338435 1.1999 0.214187 1.3915 0.129152C1.58309 0.0441173 1.79038 0.000183105 2 0.000183105C2.20962 0.000183105 2.41691 0.0441173 2.6085 0.129152C2.8001 0.214187 2.97174 0.338435 3.11237 0.493882C3.25299 0.64933 3.35948 0.832526 3.42495 1.03166C3.49042 1.23078 3.51344 1.44143 3.4925 1.65L2.9105 11.175C2.88802 11.4009 2.78238 11.6103 2.61412 11.7627C2.44586 11.915 2.22698 11.9994 2 11.9994C1.77302 11.9994 1.55414 11.915 1.38588 11.7627C1.21762 11.6103 1.11198 11.4009 1.0895 11.175L0.5075 1.65ZM0.5 15C0.5 14.6022 0.658036 14.2206 0.93934 13.9393C1.22064 13.658 1.60218 13.5 2 13.5C2.39782 13.5 2.77936 13.658 3.06066 13.9393C3.34196 14.2206 3.5 14.6022 3.5 15C3.5 15.3978 3.34196 15.7794 3.06066 16.0607C2.77936 16.342 2.39782 16.5 2 16.5C1.60218 16.5 1.22064 16.342 0.93934 16.0607C0.658036 15.7794 0.5 15.3978 0.5 15Z" />
   </symbol>

   <symbol id="darkMode" viewBox="0 0 18 18">
      <path
         d="M6.75171 0.311987C6.86152 0.445426 6.9288 0.608731 6.94484 0.7808C6.96089 0.95287 6.92496 1.1258 6.84171 1.27724C6.1913 2.4714 5.85163 3.80994 5.85396 5.16974C5.85396 9.69336 9.54171 13.3564 14.0867 13.3564C14.6796 13.3564 15.2567 13.2945 15.8113 13.1764C15.9814 13.1395 16.1584 13.1536 16.3205 13.2169C16.4826 13.2801 16.6224 13.3896 16.7226 13.5319C16.8283 13.6797 16.8822 13.8584 16.8759 14.0401C16.8696 14.2218 16.8034 14.3963 16.6877 14.5365C15.8054 15.6204 14.6922 16.4936 13.4295 17.0927C12.1668 17.6917 10.7863 18.0015 9.38871 17.9992C4.20246 17.9992 0.00170898 13.821 0.00170898 8.67299C0.00170898 4.79849 2.37996 1.47524 5.76621 0.0667372C5.93489 -0.00455198 6.12215 -0.0191838 6.29985 0.0250398C6.47756 0.0692634 6.63612 0.169954 6.75171 0.311987Z" />
      <path
         d="M12.145 3.54061C12.1611 3.49189 12.1922 3.4495 12.2338 3.41945C12.2754 3.3894 12.3254 3.37322 12.3767 3.37322C12.428 3.37322 12.478 3.3894 12.5196 3.41945C12.5613 3.4495 12.5923 3.49189 12.6085 3.54061L13.0438 4.84786C13.2385 5.43061 13.6952 5.88736 14.278 6.08198L15.5852 6.51736C15.6339 6.53349 15.6763 6.56457 15.7064 6.60617C15.7364 6.64778 15.7526 6.69779 15.7526 6.74911C15.7526 6.80043 15.7364 6.85045 15.7064 6.89205C15.6763 6.93365 15.6339 6.96473 15.5852 6.98086L14.278 7.41623C13.9906 7.51199 13.7294 7.67337 13.5152 7.88758C13.301 8.10179 13.1396 8.36295 13.0438 8.65036L12.6085 9.95761C12.5923 10.0063 12.5613 10.0487 12.5196 10.0788C12.478 10.1088 12.428 10.125 12.3767 10.125C12.3254 10.125 12.2754 10.1088 12.2338 10.0788C12.1922 10.0487 12.1611 10.0063 12.145 9.95761L11.7096 8.65036C11.6138 8.36295 11.4525 8.10179 11.2382 7.88758C11.024 7.67337 10.7629 7.51199 10.4755 7.41623L9.16821 6.98086C9.11949 6.96473 9.0771 6.93365 9.04705 6.89205C9.017 6.85045 9.00082 6.80043 9.00082 6.74911C9.00082 6.69779 9.017 6.64778 9.04705 6.60617C9.0771 6.56457 9.11949 6.53349 9.16821 6.51736L10.4755 6.08198C10.7629 5.98623 11.024 5.82485 11.2382 5.61064C11.4525 5.39643 11.6138 5.13527 11.7096 4.84786L12.145 3.54061ZM15.5976 0.110485C15.6087 0.0784521 15.6295 0.0506755 15.6571 0.0310168C15.6847 0.0113582 15.7178 0.000794585 15.7517 0.000794585C15.7856 0.000794585 15.8187 0.0113582 15.8463 0.0310168C15.8739 0.0506755 15.8947 0.0784521 15.9058 0.110485L16.1961 0.981235C16.3255 1.37049 16.6303 1.67536 17.0196 1.80474L17.8903 2.09499C17.9224 2.10609 17.9501 2.1269 17.9698 2.15452C17.9895 2.18215 18 2.21521 18 2.24911C18 2.28301 17.9895 2.31607 17.9698 2.3437C17.9501 2.37132 17.9224 2.39213 17.8903 2.40324L17.0196 2.69349C16.8278 2.7573 16.6535 2.86495 16.5105 3.0079C16.3676 3.15085 16.2599 3.32516 16.1961 3.51699L15.9058 4.38774C15.8947 4.41977 15.8739 4.44755 15.8463 4.4672C15.8187 4.48686 15.7856 4.49743 15.7517 4.49743C15.7178 4.49743 15.6847 4.48686 15.6571 4.4672C15.6295 4.44755 15.6087 4.41977 15.5976 4.38774L15.3073 3.51699C15.2435 3.32516 15.1359 3.15085 14.9929 3.0079C14.85 2.86495 14.6757 2.7573 14.4838 2.69349L13.6131 2.40324C13.5811 2.39213 13.5533 2.37132 13.5336 2.3437C13.514 2.31607 13.5034 2.28301 13.5034 2.24911C13.5034 2.21521 13.514 2.18215 13.5336 2.15452C13.5533 2.1269 13.5811 2.10609 13.6131 2.09499L14.4838 1.80474C14.8731 1.67536 15.178 1.37049 15.3073 0.981235L15.5976 0.11161V0.110485Z" />
   </symbol>


   <symbol id="menuEdit" viewBox="0 0 4 15">
      <path
         d="M4 2.04545C4 3.17513 3.10457 4.09091 2 4.09091C0.89543 4.09091 0 3.17513 0 2.04545C0 0.915781 0.89543 0 2 0C3.10457 0 4 0.915781 4 2.04545Z" />
      <path
         d="M4 7.5C4 8.62967 3.10457 9.54545 2 9.54545C0.89543 9.54545 0 8.62967 0 7.5C0 6.37033 0.89543 5.45455 2 5.45455C3.10457 5.45455 4 6.37033 4 7.5Z" />
      <path
         d="M4 12.9545C4 14.0842 3.10457 15 2 15C0.89543 15 0 14.0842 0 12.9545C0 11.8249 0.89543 10.9091 2 10.9091C3.10457 10.9091 4 11.8249 4 12.9545Z" />
   </symbol>


   <symbol id="btnDelete" viewBox="0 0 19 22" >
      <path
         d="M5.90625 7.90625C6.09687 7.90625 6.27969 7.98198 6.41448 8.11677C6.54927 8.25156 6.625 8.43438 6.625 8.625V17.25C6.625 17.4406 6.54927 17.6234 6.41448 17.7582C6.27969 17.893 6.09687 17.9688 5.90625 17.9688C5.71563 17.9688 5.53281 17.893 5.39802 17.7582C5.26323 17.6234 5.1875 17.4406 5.1875 17.25V8.625C5.1875 8.43438 5.26323 8.25156 5.39802 8.11677C5.53281 7.98198 5.71563 7.90625 5.90625 7.90625ZM9.5 7.90625C9.69062 7.90625 9.87344 7.98198 10.0082 8.11677C10.143 8.25156 10.2188 8.43438 10.2188 8.625V17.25C10.2188 17.4406 10.143 17.6234 10.0082 17.7582C9.87344 17.893 9.69062 17.9688 9.5 17.9688C9.30938 17.9688 9.12656 17.893 8.99177 17.7582C8.85698 17.6234 8.78125 17.4406 8.78125 17.25V8.625C8.78125 8.43438 8.85698 8.25156 8.99177 8.11677C9.12656 7.98198 9.30938 7.90625 9.5 7.90625ZM13.8125 8.625C13.8125 8.43438 13.7368 8.25156 13.602 8.11677C13.4672 7.98198 13.2844 7.90625 13.0938 7.90625C12.9031 7.90625 12.7203 7.98198 12.5855 8.11677C12.4507 8.25156 12.375 8.43438 12.375 8.625V17.25C12.375 17.4406 12.4507 17.6234 12.5855 17.7582C12.7203 17.893 12.9031 17.9688 13.0938 17.9688C13.2844 17.9688 13.4672 17.893 13.602 17.7582C13.7368 17.6234 13.8125 17.4406 13.8125 17.25V8.625Z"
         />
      <path fill-rule="evenodd" clip-rule="evenodd"
         d="M18.8438 4.3125C18.8438 4.69375 18.6923 5.05938 18.4227 5.32897C18.1531 5.59855 17.7875 5.75 17.4062 5.75H16.6875V18.6875C16.6875 19.45 16.3846 20.1813 15.8454 20.7204C15.3063 21.2596 14.575 21.5625 13.8125 21.5625H5.1875C4.425 21.5625 3.69374 21.2596 3.15457 20.7204C2.6154 20.1813 2.3125 19.45 2.3125 18.6875V5.75H1.59375C1.2125 5.75 0.846867 5.59855 0.577284 5.32897C0.3077 5.05938 0.15625 4.69375 0.15625 4.3125V2.875C0.15625 2.49375 0.3077 2.12812 0.577284 1.85853C0.846867 1.58895 1.2125 1.4375 1.59375 1.4375H6.625C6.625 1.05625 6.77645 0.690618 7.04603 0.421034C7.31562 0.15145 7.68125 0 8.0625 0H10.9375C11.3187 0 11.6844 0.15145 11.954 0.421034C12.2235 0.690618 12.375 1.05625 12.375 1.4375H17.4062C17.7875 1.4375 18.1531 1.58895 18.4227 1.85853C18.6923 2.12812 18.8438 2.49375 18.8438 2.875V4.3125ZM3.91963 5.75L3.75 5.83481V18.6875C3.75 19.0687 3.90145 19.4344 4.17103 19.704C4.44062 19.9735 4.80625 20.125 5.1875 20.125H13.8125C14.1937 20.125 14.5594 19.9735 14.829 19.704C15.0985 19.4344 15.25 19.0687 15.25 18.6875V5.83481L15.0804 5.75H3.91963ZM1.59375 4.3125V2.875H17.4062V4.3125H1.59375Z"
         />
   </symbol>



   <symbol id="lightMode" viewBox="0 0 18 18">
      <path
         d="M13.5 9C13.5 10.1935 13.0259 11.3381 12.182 12.182C11.3381 13.0259 10.1935 13.5 9 13.5C7.80653 13.5 6.66193 13.0259 5.81802 12.182C4.97411 11.3381 4.5 10.1935 4.5 9C4.5 7.80653 4.97411 6.66193 5.81802 5.81802C6.66193 4.97411 7.80653 4.5 9 4.5C10.1935 4.5 11.3381 4.97411 12.182 5.81802C13.0259 6.66193 13.5 7.80653 13.5 9ZM9 0C9.14918 0 9.29226 0.0592632 9.39775 0.164752C9.50324 0.270242 9.5625 0.413316 9.5625 0.5625V2.8125C9.5625 2.96168 9.50324 3.10476 9.39775 3.21025C9.29226 3.31574 9.14918 3.375 9 3.375C8.85082 3.375 8.70774 3.31574 8.60225 3.21025C8.49676 3.10476 8.4375 2.96168 8.4375 2.8125V0.5625C8.4375 0.413316 8.49676 0.270242 8.60225 0.164752C8.70774 0.0592632 8.85082 0 9 0ZM9 14.625C9.14918 14.625 9.29226 14.6843 9.39775 14.7898C9.50324 14.8952 9.5625 15.0383 9.5625 15.1875V17.4375C9.5625 17.5867 9.50324 17.7298 9.39775 17.8352C9.29226 17.9407 9.14918 18 9 18C8.85082 18 8.70774 17.9407 8.60225 17.8352C8.49676 17.7298 8.4375 17.5867 8.4375 17.4375V15.1875C8.4375 15.0383 8.49676 14.8952 8.60225 14.7898C8.70774 14.6843 8.85082 14.625 9 14.625ZM18 9C18 9.14918 17.9407 9.29226 17.8352 9.39775C17.7298 9.50324 17.5867 9.5625 17.4375 9.5625H15.1875C15.0383 9.5625 14.8952 9.50324 14.7898 9.39775C14.6843 9.29226 14.625 9.14918 14.625 9C14.625 8.85082 14.6843 8.70774 14.7898 8.60225C14.8952 8.49676 15.0383 8.4375 15.1875 8.4375H17.4375C17.5867 8.4375 17.7298 8.49676 17.8352 8.60225C17.9407 8.70774 18 8.85082 18 9ZM3.375 9C3.375 9.14918 3.31574 9.29226 3.21025 9.39775C3.10476 9.50324 2.96168 9.5625 2.8125 9.5625H0.5625C0.413316 9.5625 0.270242 9.50324 0.164752 9.39775C0.0592632 9.29226 0 9.14918 0 9C0 8.85082 0.0592632 8.70774 0.164752 8.60225C0.270242 8.49676 0.413316 8.4375 0.5625 8.4375H2.8125C2.96168 8.4375 3.10476 8.49676 3.21025 8.60225C3.31574 8.70774 3.375 8.85082 3.375 9ZM15.3641 2.63587C15.4696 2.74136 15.5288 2.88441 15.5288 3.03356C15.5288 3.18272 15.4696 3.32577 15.3641 3.43125L13.7734 5.02313C13.7211 5.07535 13.659 5.11676 13.5907 5.145C13.5224 5.17323 13.4492 5.18774 13.3753 5.18769C13.226 5.18758 13.0829 5.12818 12.9774 5.02256C12.9252 4.97026 12.8838 4.90819 12.8556 4.83989C12.8273 4.77158 12.8128 4.69839 12.8129 4.62448C12.813 4.47521 12.8724 4.3321 12.978 4.22662L14.5687 2.63587C14.6742 2.53042 14.8173 2.47118 14.9664 2.47118C15.1156 2.47118 15.2586 2.53042 15.3641 2.63587ZM5.022 12.978C5.12745 13.0835 5.18669 13.2265 5.18669 13.3757C5.18669 13.5248 5.12745 13.6679 5.022 13.7734L3.43125 15.3641C3.32516 15.4666 3.18307 15.5233 3.03559 15.522C2.8881 15.5207 2.74702 15.4616 2.64273 15.3573C2.53844 15.253 2.47928 15.1119 2.478 14.9644C2.47671 14.8169 2.53341 14.6748 2.63587 14.5687L4.22662 12.978C4.33211 12.8725 4.47516 12.8133 4.62431 12.8133C4.77347 12.8133 4.91652 12.8725 5.022 12.978ZM15.3641 15.3641C15.2586 15.4696 15.1156 15.5288 14.9664 15.5288C14.8173 15.5288 14.6742 15.4696 14.5687 15.3641L12.978 13.7734C12.8755 13.6673 12.8188 13.5252 12.8201 13.3777C12.8214 13.2302 12.8806 13.0891 12.9849 12.9849C13.0891 12.8806 13.2302 12.8214 13.3777 12.8201C13.5252 12.8188 13.6673 12.8755 13.7734 12.978L15.3641 14.5687C15.4696 14.6742 15.5288 14.8173 15.5288 14.9664C15.5288 15.1156 15.4696 15.2586 15.3641 15.3641ZM5.022 5.02313C4.91652 5.12858 4.77347 5.18782 4.62431 5.18782C4.47516 5.18782 4.33211 5.12858 4.22662 5.02313L2.63587 3.43125C2.58215 3.37936 2.5393 3.31729 2.50982 3.24867C2.48034 3.18004 2.46482 3.10623 2.46417 3.03154C2.46352 2.95685 2.47775 2.88278 2.50604 2.81365C2.53432 2.74452 2.57609 2.68172 2.6289 2.6289C2.68172 2.57609 2.74452 2.53432 2.81365 2.50604C2.88278 2.47775 2.95685 2.46352 3.03154 2.46417C3.10623 2.46482 3.18004 2.48034 3.24867 2.50982C3.31729 2.5393 3.37936 2.58215 3.43125 2.63587L5.022 4.22662C5.07438 4.27888 5.11594 4.34095 5.1443 4.40929C5.17266 4.47763 5.18726 4.55089 5.18726 4.62488C5.18726 4.69886 5.17266 4.77212 5.1443 4.84046C5.11594 4.9088 5.07438 4.97087 5.022 5.02313Z" />
   </symbol>

   <symbol id="logo" viewBox="0 0 23 25">
      <path fill-rule="evenodd" clip-rule="evenodd"
         d="M9.2 1.5625H18.4V12.5C18.4 12.6382 18.3641 12.774 18.2958 12.8934C18.2275 13.0129 18.1293 13.1117 18.0113 13.1799C17.8933 13.248 17.7597 13.283 17.624 13.2814C17.4884 13.2797 17.3556 13.2414 17.2393 13.1703L13.8 11.0672L10.3607 13.1719C10.2443 13.243 10.1114 13.2813 9.97558 13.2829C9.83981 13.2845 9.70606 13.2494 9.588 13.181C9.46994 13.1127 9.37181 13.0136 9.30363 12.894C9.23546 12.7743 9.1997 12.6384 9.2 12.5V1.5625Z" />
      <path
         d="M4.6 0H19.9333C20.7467 0 21.5267 0.32924 22.1018 0.915291C22.6769 1.50134 23 2.2962 23 3.125V21.875C23 22.7038 22.6769 23.4987 22.1018 24.0847C21.5267 24.6708 20.7467 25 19.9333 25H4.6C3.78667 25 3.00665 24.6708 2.43154 24.0847C1.85643 23.4987 1.53333 22.7038 1.53333 21.875V20.3125H3.06667V21.875C3.06667 22.2894 3.22821 22.6868 3.51577 22.9799C3.80333 23.2729 4.19333 23.4375 4.6 23.4375H19.9333C20.34 23.4375 20.73 23.2729 21.0176 22.9799C21.3051 22.6868 21.4667 22.2894 21.4667 21.875V3.125C21.4667 2.7106 21.3051 2.31317 21.0176 2.02015C20.73 1.72712 20.34 1.5625 19.9333 1.5625H4.6C4.19333 1.5625 3.80333 1.72712 3.51577 2.02015C3.22821 2.31317 3.06667 2.7106 3.06667 3.125V4.6875H1.53333V3.125C1.53333 2.2962 1.85643 1.50134 2.43154 0.915291C3.00665 0.32924 3.78667 0 4.6 0Z" />
      <path
         d="M1.53333 7.8125V7.03125C1.53333 6.82405 1.61411 6.62534 1.75788 6.47882C1.90166 6.33231 2.09667 6.25 2.3 6.25C2.50333 6.25 2.69834 6.33231 2.84212 6.47882C2.98589 6.62534 3.06667 6.82405 3.06667 7.03125V7.8125H3.83333C4.03667 7.8125 4.23167 7.89481 4.37545 8.04132C4.51923 8.18784 4.6 8.38655 4.6 8.59375C4.6 8.80095 4.51923 8.99966 4.37545 9.14618C4.23167 9.29269 4.03667 9.375 3.83333 9.375H0.766667C0.563334 9.375 0.368329 9.29269 0.224551 9.14618C0.0807736 8.99966 0 8.80095 0 8.59375C0 8.38655 0.0807736 8.18784 0.224551 8.04132C0.368329 7.89481 0.563334 7.8125 0.766667 7.8125H1.53333ZM1.53333 12.5V11.7188C1.53333 11.5115 1.61411 11.3128 1.75788 11.1663C1.90166 11.0198 2.09667 10.9375 2.3 10.9375C2.50333 10.9375 2.69834 11.0198 2.84212 11.1663C2.98589 11.3128 3.06667 11.5115 3.06667 11.7188V12.5H3.83333C4.03667 12.5 4.23167 12.5823 4.37545 12.7288C4.51923 12.8753 4.6 13.074 4.6 13.2813C4.6 13.4885 4.51923 13.6872 4.37545 13.8337C4.23167 13.9802 4.03667 14.0625 3.83333 14.0625H0.766667C0.563334 14.0625 0.368329 13.9802 0.224551 13.8337C0.0807736 13.6872 0 13.4885 0 13.2813C0 13.074 0.0807736 12.8753 0.224551 12.7288C0.368329 12.5823 0.563334 12.5 0.766667 12.5H1.53333ZM1.53333 17.1875V16.4063C1.53333 16.199 1.61411 16.0003 1.75788 15.8538C1.90166 15.7073 2.09667 15.625 2.3 15.625C2.50333 15.625 2.69834 15.7073 2.84212 15.8538C2.98589 16.0003 3.06667 16.199 3.06667 16.4063V17.1875H3.83333C4.03667 17.1875 4.23167 17.2698 4.37545 17.4163C4.51923 17.5628 4.6 17.7616 4.6 17.9688C4.6 18.176 4.51923 18.3747 4.37545 18.5212C4.23167 18.6677 4.03667 18.75 3.83333 18.75H0.766667C0.563334 18.75 0.368329 18.6677 0.224551 18.5212C0.0807736 18.3747 0 18.176 0 17.9688C0 17.7616 0.0807736 17.5628 0.224551 17.4163C0.368329 17.2698 0.563334 17.1875 0.766667 17.1875H1.53333Z" />
   </symbol>



</svg>