<?xml version="1.0" standalone="no"?>
<!DOCTYPE svg PUBLIC "-//W3C//DTD SVG 20010904//EN"
 "http://www.w3.org/TR/2001/REC-SVG-20010904/DTD/svg10.dtd">
<svg version="1.0" xmlns="http://www.w3.org/2000/svg"
 width="800.000000pt" height="800.000000pt" viewBox="0 0 800.000000 800.000000"
 preserveAspectRatio="xMidYMid meet">
<metadata>
Created by potrace 1.14, written by Peter Selinger 2001-2017
</metadata>
<g transform="translate(0.000000,800.000000) scale(0.100000,-0.100000)"
fill="#000000" stroke="none">
<path d="M1679 7996 c-2 -2 -22 -7 -44 -10 -50 -7 -60 -10 -115 -26 -25 -8
-47 -14 -50 -15 -3 -1 -22 -9 -44 -18 -21 -9 -42 -17 -45 -17 -13 0 -178 -107
-211 -136 -79 -70 -156 -157 -195 -219 -79 -126 -138 -282 -149 -395 -1 -9 -5
-20 -8 -25 -3 -6 -6 -151 -7 -322 l-2 -313 33 -1 c18 -1 37 -1 42 0 5 1 101 3
214 4 l204 2 0 279 c1 289 6 341 48 431 26 58 86 135 132 170 21 17 45 36 53
43 7 6 17 12 22 12 4 0 22 7 38 16 50 26 154 45 232 43 40 -1 75 0 77 2 2 2
165 2 361 -1 196 -3 358 -3 360 0 2 3 56 3 120 0 64 -3 118 -3 120 0 2 3 56 3
120 0 64 -3 119 -2 120 1 2 3 29 2 60 -1 31 -3 58 -2 61 2 3 5 13 4 22 -1 15
-9 17 -141 17 -1788 l1 -1778 22 -43 c46 -87 132 -142 220 -142 51 1 125 23
130 40 2 5 12 10 23 10 11 0 22 7 25 15 4 8 10 15 15 15 4 0 85 47 179 105 94
58 175 105 180 105 4 0 10 4 12 8 2 5 29 24 62 43 32 19 73 43 90 54 18 11 54
33 82 50 27 16 52 34 56 40 4 5 8 6 8 2 0 -5 21 6 48 24 90 62 101 69 106 69
3 0 37 20 76 45 39 25 73 45 77 45 4 0 17 10 29 21 l23 22 92 -57 c50 -31 95
-56 100 -56 5 0 9 -4 9 -10 0 -5 5 -10 11 -10 6 0 31 -13 56 -30 24 -16 48
-30 54 -30 5 0 9 -4 9 -10 0 -5 4 -10 9 -10 8 0 325 -191 346 -208 6 -5 15
-11 21 -13 5 -2 94 -56 197 -119 251 -155 259 -158 332 -156 102 3 169 46 218
139 l22 42 2 1765 c1 971 2 1774 2 1785 1 19 6 20 127 15 69 -3 127 -3 129 -1
3 2 52 3 111 2 227 -4 265 -12 370 -72 56 -32 154 -124 154 -145 0 -7 8 -18
18 -23 9 -6 13 -11 8 -11 -5 0 -4 -6 2 -13 16 -19 55 -128 48 -134 -3 -4 -1
-12 4 -18 7 -8 9 -1071 7 -3101 -2 -2862 -3 -3092 -19 -3131 -9 -22 -14 -44
-11 -47 4 -3 1 -6 -5 -6 -7 0 -12 -6 -12 -13 0 -46 -151 -209 -207 -223 -13
-4 -23 -9 -23 -14 0 -6 -37 -20 -100 -38 -8 -2 -64 -6 -124 -8 -60 -2 -110 -5
-112 -6 -1 -2 -163 -1 -359 2 -196 3 -358 3 -360 0 -2 -3 -56 -3 -120 0 -64 3
-118 3 -120 0 -2 -3 -236 -3 -520 0 -284 3 -518 3 -520 0 -2 -3 -56 -3 -120 0
-64 3 -118 3 -120 0 -2 -3 -164 -3 -360 0 -196 3 -358 3 -360 0 -2 -3 -56 -3
-120 0 -64 3 -118 3 -120 0 -2 -3 -164 -3 -360 0 -196 3 -358 3 -360 0 -2 -3
-56 -3 -120 0 -64 3 -118 3 -120 0 -5 -8 -706 6 -745 14 -19 5 -44 13 -55 19
-11 6 -26 12 -33 13 -8 1 -22 10 -31 18 -10 9 -21 16 -25 16 -4 0 -13 6 -21
13 -7 7 -26 24 -42 38 -15 13 -39 40 -53 59 -13 19 -27 37 -30 40 -15 14 -49
92 -67 155 -3 11 -7 141 -9 290 -2 148 -6 275 -8 281 -3 7 0 14 6 16 6 2 8 10
4 16 -5 9 -73 12 -252 12 l-245 0 2 -306 c2 -363 12 -434 91 -614 20 -44 86
-160 97 -170 4 -3 18 -21 33 -41 74 -99 208 -207 326 -264 93 -45 106 -50 157
-64 22 -6 58 -16 80 -23 60 -19 5183 -23 5270 -4 158 34 321 104 405 173 140
114 214 199 283 323 35 64 101 230 91 230 -2 0 0 8 5 17 5 10 13 34 17 53 12
52 15 6274 3 6335 -5 28 -12 61 -14 75 -3 14 -7 34 -9 45 -5 24 -31 94 -57
152 -10 24 -19 47 -19 53 0 5 -4 10 -10 10 -5 0 -10 5 -10 11 0 18 -97 152
-148 204 -53 55 -119 115 -126 115 -2 0 -31 18 -65 41 -58 38 -205 105 -254
115 -12 2 -51 11 -87 18 -55 13 -445 15 -2626 15 -1408 1 -2563 -1 -2565 -3z"/>
<path d="M954 5975 c-61 -30 -89 -58 -119 -121 -21 -43 -23 -64 -25 -198 0
-83 -2 -151 -3 -153 -2 -1 -69 -3 -149 -4 -100 0 -154 -5 -172 -14 -14 -8 -26
-11 -26 -9 0 17 -85 -65 -108 -104 -23 -40 -27 -58 -27 -123 0 -67 4 -82 30
-125 58 -94 135 -126 296 -124 41 0 82 0 92 0 9 0 25 0 35 0 56 0 80 -1 102
-3 14 -2 35 1 47 5 12 4 25 3 28 -1 3 -5 20 -6 38 -2 18 5 41 6 52 4 11 -2 54
-3 95 -3 41 0 82 1 90 1 8 -1 44 -1 80 0 36 0 71 0 78 -1 12 0 26 0 57 0 8 0
32 0 53 -1 136 -3 232 52 275 159 40 100 4 235 -80 292 -60 41 -101 49 -249
50 l-142 0 -1 151 c-1 166 -13 214 -69 272 -69 74 -187 95 -278 52z"/>
<path d="M977 4486 c-54 -20 -101 -59 -132 -111 -30 -52 -34 -79 -34 -252 l-1
-121 -45 0 c-24 0 -49 -3 -55 -7 -5 -3 -10 -3 -10 2 0 14 -182 3 -227 -14 -10
-4 -22 -11 -28 -15 -61 -48 -77 -66 -99 -111 -20 -42 -24 -64 -22 -117 2 -37
11 -80 20 -98 23 -44 75 -102 92 -102 8 0 14 -3 14 -8 0 -4 17 -12 37 -19 52
-16 1063 -18 1128 -2 54 14 125 73 151 126 39 83 27 200 -28 267 -33 40 -99
82 -140 90 -15 2 -32 7 -38 11 -5 3 -10 2 -10 -4 0 -6 -11 -6 -30 -1 -16 5
-30 6 -30 2 0 -8 -105 -6 -119 2 -5 4 -12 2 -15 -2 -3 -5 -17 -7 -30 -5 -24 5
-24 5 -23 124 1 65 -2 119 -6 119 -4 0 -4 8 2 18 14 27 -24 116 -72 166 -66
69 -163 93 -250 62z"/>
<path d="M988 2990 c-67 -20 -128 -75 -155 -138 -20 -47 -22 -65 -22 -219 l-1
-131 -157 -4 c-177 -4 -199 -10 -264 -79 -109 -115 -82 -304 54 -383 37 -22
131 -42 177 -37 8 1 24 1 35 1 11 -1 26 -1 33 -1 28 2 40 2 97 1 33 0 81 0
107 1 26 0 52 -2 58 -6 5 -3 10 -1 10 5 0 6 5 8 11 4 14 -8 119 -11 119 -3 0
4 15 4 33 2 17 -3 38 -4 45 -4 32 2 43 2 202 0 30 0 64 0 75 0 18 1 42 0 70
-1 39 -1 110 14 143 31 53 27 107 92 122 146 13 47 9 132 -8 176 -24 61 -109
131 -174 143 -13 3 -85 5 -160 5 l-137 1 0 138 c0 75 -3 150 -6 166 -14 71
-66 135 -138 173 -35 18 -128 25 -169 13z"/>
</g>
</svg>
